<svg version="1.0" xmlns="http://www.w3.org/2000/svg"
 width="current" height="current" viewBox="0 0 2084.000000 2084.000000"
 preserveAspectRatio="xMidYMid meet">

<g transform="translate(0.000000,2084.000000) scale(0.100000,-0.100000)"
fill="#000000" stroke="none">
<path d="M9795 16879 c-1733 -108 -3341 -671 -4590 -1609 -1652 -1240 -2496
-2974 -2319 -4765 126 -1275 767 -2477 1834 -3439 458 -413 970 -764 1561
-1071 l136 -70 -189 -705 c-307 -1148 -467 -1761 -478 -1833 -27 -176 48 -284
184 -262 69 12 119 39 324 178 108 74 762 518 1452 987 l1255 853 220 -27
c632 -77 1205 -93 1825 -50 3306 226 6040 2157 6694 4728 112 437 152 796 143
1270 -5 292 -18 444 -58 681 -294 1754 -1561 3311 -3459 4249 -1040 514 -2188
810 -3440 886 -191 11 -904 11 -1095 -1z m-2300 -4095 c139 -9 237 -70 296
-186 102 -200 29 -447 -160 -540 -45 -23 -53 -23 -483 -26 l-438 -3 0 -1300
c0 -966 -3 -1312 -12 -1347 -16 -65 -93 -141 -173 -171 -241 -90 -540 -14
-611 155 -12 28 -14 245 -14 1363 l0 1330 -437 3 -438 3 -51 27 c-63 33 -118
94 -153 167 -23 50 -26 68 -26 171 0 98 3 122 23 164 45 98 106 156 195 188
49 17 113 17 1227 13 646 -3 1211 -8 1255 -11z m1481 -25 c145 -36 262 -117
311 -213 53 -105 240 -596 745 -1956 409 -1101 382 -1021 374 -1092 -16 -159
-159 -293 -356 -334 -154 -32 -296 13 -365 117 -51 78 -163 415 -174 524 l-6
60 -699 0 -700 0 -78 -270 c-42 -148 -85 -285 -95 -303 -23 -43 -76 -90 -127
-113 -179 -79 -459 28 -562 213 -25 46 -29 63 -29 128 1 69 6 88 67 235 84
204 211 543 537 1431 275 751 414 1120 488 1297 65 154 138 229 265 273 107
36 269 37 404 3z m2244 4 c122 -33 212 -108 249 -206 l21 -58 0 -1274 0 -1275
213 -1 c116 -1 366 -4 554 -8 l341 -6 44 -30 c90 -64 142 -191 142 -350 1
-171 -63 -311 -164 -361 l-45 -23 -850 -3 c-844 -3 -850 -3 -895 18 -91 42
-153 133 -167 245 -5 35 -8 744 -8 1574 l0 1510 22 47 c82 178 314 264 543
201z m2374 -13 c32 -12 76 -38 98 -58 77 -70 73 -29 73 -669 l0 -573 660 660
c454 453 669 661 688 666 78 19 180 -20 290 -111 152 -125 255 -313 220 -401
-4 -12 -130 -149 -279 -305 -399 -418 -765 -812 -762 -821 2 -4 246 -328 544
-720 298 -392 546 -723 552 -735 7 -12 12 -51 12 -86 0 -91 -41 -169 -140
-268 -61 -61 -95 -86 -174 -125 -97 -48 -101 -49 -190 -49 -77 0 -97 3 -127
23 -27 16 -180 218 -554 728 -360 491 -520 702 -528 696 -7 -5 -58 -46 -114
-91 l-103 -82 0 -537 c0 -499 -2 -540 -19 -577 -46 -103 -189 -165 -381 -165
-192 0 -351 70 -389 171 -6 17 -7 602 -4 1645 5 1540 7 1621 24 1655 33 65
103 111 220 144 85 23 306 15 383 -15z"/>
<path d="M8815 11889 c-3 -8 -106 -304 -229 -659 l-223 -645 435 -3 c239 -1
437 0 440 3 4 4 -405 1303 -414 1314 -2 2 -6 -2 -9 -10z"/>
</g>
</svg>
