<svg version="1.0" xmlns="http://www.w3.org/2000/svg"
 width="320.000000pt" height="512.000000pt" viewBox="0 0 320.000000 512.000000"
 preserveAspectRatio="xMidYMid meet">

<g transform="translate(0.000000,512.000000) scale(0.100000,-0.100000)"
fill="#000000" stroke="none">
<path d="M247 4150 c-94 -24 -173 -90 -216 -180 -21 -44 -26 -70 -26 -130 0
-143 -15 -124 598 -737 l541 -543 -199 -202 c-110 -112 -355 -359 -545 -550
-391 -394 -394 -398 -394 -528 0 -129 66 -233 184 -289 44 -21 70 -26 130 -26
143 0 124 -15 737 598 l543 541 182 -179 c101 -99 348 -344 550 -545 415 -413
417 -414 548 -414 129 0 233 66 289 184 21 44 26 70 26 130 0 143 15 124 -598
737 l-541 543 541 543 c613 613 597 594 597 737 0 129 -66 233 -184 289 -44
21 -70 26 -130 26 -143 0 -124 15 -738 -598 l-542 -542 -378 376 c-710 708
-711 710 -767 735 -59 27 -152 38 -208 24z"/>
</g>
</svg>
